<?xml version="1.0" standalone="no"?>
<!DOCTYPE svg PUBLIC "-//W3C//DTD SVG 20010904//EN"
 "http://www.w3.org/TR/2001/REC-SVG-20010904/DTD/svg10.dtd">
<svg version="1.0" xmlns="http://www.w3.org/2000/svg"
 width="1400.000000pt" height="1400.000000pt" viewBox="0 0 1400.000000 1400.000000"
 preserveAspectRatio="xMidYMid meet">
<metadata>
Created by potrace 1.14, written by Peter Selinger 2001-2017
</metadata>
<g transform="translate(0.000000,1400.000000) scale(0.100000,-0.100000)"
fill="#000000" stroke="none">
<path d="M3780 12559 c-481 -39 -968 -191 -1377 -430 -890 -522 -1484 -1451
-1584 -2479 -15 -160 -15 -472 0 -620 57 -547 232 -1024 629 -1710 68 -118
208 -346 236 -383 l20 -27 2640 2 2639 3 22 90 c13 50 44 171 69 270 120 458
202 775 246 945 26 102 99 385 163 630 220 846 244 940 352 1355 30 116 68
262 85 325 17 63 33 130 37 148 3 17 9 32 12 32 4 0 15 -48 24 -107 9 -60 32
-207 52 -328 42 -261 85 -526 160 -995 30 -190 66 -412 80 -495 23 -140 272
-1683 315 -1950 19 -120 40 -250 148 -918 56 -349 58 -357 70 -310 6 26 41
170 77 318 37 149 108 441 159 650 52 209 121 493 155 630 33 138 108 444 166
680 172 705 240 982 325 1330 44 182 84 339 89 350 8 19 9 19 15 -5 7 -28 177
-862 236 -1160 21 -107 84 -418 140 -690 55 -272 119 -587 141 -700 22 -113
43 -212 45 -220 5 -14 154 347 154 372 0 8 279 9 968 3 l967 -7 76 128 c129
219 299 542 361 689 9 22 33 78 53 125 113 264 201 607 236 920 16 136 16 516
0 650 -71 620 -294 1173 -671 1662 -109 142 -382 419 -520 529 -233 185 -509
347 -780 459 -778 319 -1625 330 -2406 30 -221 -85 -509 -239 -700 -375 -275
-195 -566 -486 -756 -755 -66 -95 -264 -386 -306 -452 -20 -32 -39 -57 -42
-58 -3 0 -32 42 -66 93 -89 136 -301 444 -337 491 -521 671 -1233 1099 -2048
1230 -269 44 -519 55 -769 35z"/>
<path d="M7867 8858 c-9 -40 -41 -165 -71 -278 -54 -207 -148 -570 -191 -735
-13 -49 -50 -193 -83 -320 -33 -126 -79 -302 -102 -390 -95 -367 -151 -580
-154 -582 -2 -2 -1198 -3 -2659 -3 -1462 0 -2657 -2 -2657 -5 0 -6 148 -209
254 -349 50 -65 102 -133 116 -151 57 -74 89 -115 174 -220 97 -119 325 -392
347 -416 8 -8 50 -55 94 -104 271 -304 423 -465 799 -840 358 -358 765 -741
1040 -980 38 -33 106 -91 150 -130 45 -38 95 -81 111 -96 30 -28 559 -488 985
-858 129 -112 298 -258 375 -325 77 -67 210 -182 295 -256 85 -74 157 -137
160 -140 3 -3 38 -34 77 -68 l73 -64 72 64 c132 115 158 141 151 151 -3 6 -1
7 5 3 11 -6 92 61 352 289 63 56 198 173 300 260 169 145 540 469 1125 979
121 106 233 203 249 217 36 30 31 26 156 139 567 514 1091 1033 1531 1520 126
139 305 343 339 386 27 34 119 144 155 185 118 136 495 629 634 829 103 149
151 219 151 222 0 2 -325 4 -723 6 l-722 3 -42 -113 c-23 -62 -101 -264 -173
-448 -72 -184 -168 -431 -213 -547 -45 -117 -85 -213 -88 -213 -3 0 -16 48
-27 108 -12 59 -91 454 -177 877 -86 424 -185 912 -219 1085 -79 391 -72 358
-79 340 -3 -8 -30 -118 -61 -245 -63 -265 -133 -550 -241 -990 -42 -170 -96
-391 -120 -490 -45 -184 -133 -543 -277 -1130 -44 -181 -129 -530 -189 -775
-60 -245 -114 -466 -121 -492 -12 -50 -28 -64 -28 -25 0 12 -23 162 -50 332
-28 171 -84 522 -126 780 -41 259 -95 592 -119 740 -139 866 -218 1354 -235
1460 -11 66 -83 512 -160 990 -77 479 -141 874 -143 878 -1 4 -10 -25 -20 -65z"/>
</g>
</svg>
